inDegrees=yes
name=ik_s24_walk_orientation
DataType=double
version=3
OpenSimVersion=4.5
endheader
time	pelvis_tilt	pelvis_list	pelvis_rotation	pelvis_tx	pelvis_ty	pelvis_tz	hip_flexion_r	hip_adduction_r	hip_rotation_r	knee_angle_r	knee_angle_r_beta	ankle_angle_r	subtalar_angle_r	mtp_angle_r	hip_flexion_l	hip_adduction_l	hip_rotation_l	knee_angle_l	knee_angle_l_beta	ankle_angle_l	subtalar_angle_l	mtp_angle_l	lumbar_extension	lumbar_bending	lumbar_rotation	arm_flex_r	arm_add_r	arm_rot_r	elbow_flex_r	pro_sup_r	wrist_flex_r	wrist_dev_r	arm_flex_l	arm_add_l	arm_rot_l	elbow_flex_l	pro_sup_l	wrist_flex_l	wrist_dev_l
11.36538461538473	-5.59317209845628	-15.91455070537911	93.22804846470113	0	0.93	0	17.68102877100054	-10.73209820889522	-22.37051429819427	0.03973861290199531	0.0006935696353153168	-4.999999851033342	0	0	-29.9167799108236	13.8079664607606	-39.97886423318035	0.01801710576908666	0.0003144578173506274	-4.99999985104452	0	0	0	0	-8.87534903033212e-12	0	0	85.35455906460182	1.40578791269962e-39	5.244236561770404e-39	0	0	0	0	75.29704761991584	3.731436189012313e-40	2.618596485955038e-41	0	0
11.3846153846155	-6.193903152249097	-15.06650115068116	92.16971382601903	0	0.93	0	9.800081702197827	-10.92904166750749	-23.54110728760174	0.04500449696632443	0.0007854766502661608	-4.999999851033714	0	0	-29.92192173850324	10.56056317742419	-39.97297575592489	0.01583428894650265	0.0002763604768286154	-4.999999851044594	0	0	0	0	-8.87534903033212e-12	0	0	87.24343955367327	0	0	0	0	0	0	73.87017285416522	0	0	0	0
11.40384615384627	-6.847692991761382	-14.06076723593248	92.46466017540565	0	0.93	0	6.390649065264311	-15.38700064211508	-30.29406097391607	0.02258975353826292	0.0003942655764567268	-4.999999851033971	0	0	-29.16366827256187	10.90947207607486	-39.97164725799693	0.01619070175873359	0.0002825810538983377	-4.999999851044644	0	0	0	0	-8.87534903033212e-12	0	0	87.20562558775411	0	0	0	0	0	0	75.47167686817225	1.687188791311595e-39	1.217630461478878e-38	0	0
11.42307692307704	-6.798624307094266	-13.68648235233295	93.13623723413497	0	0.93	0	3.566023141687649	-28.76887696725927	-33.47712357695005	0.01167185353579976	0.0002037122740102476	-4.999999851034431	0	0	-29.83783677699495	6.638578710109256	-39.9758219768349	0.02394249891406899	0.0004178754372056708	-4.999999851044736	0	0	0	0	-8.87534903033212e-12	0	0	87.19212269553456	5.913926680806598e-39	8.905227815804219e-39	0	0	0	0	77.36995816776546	0	9.978829352870742e-39	0	0
11.44230769230781	-6.157488124843041	-13.12551877894158	99.03371393710962	0	0.93	0	-1.679946019300626	-38.42508071525737	-31.18173083351893	0.01424366309409696	0.0002485988185367949	-4.999999851035043	0	0	-24.53033484953208	3.398345890106309	-39.98465923743665	0.01911324551904038	0.0003335890650493072	-4.999999851044855	0	0	0	0	-8.87534903033212e-12	0	0	82.52309681220277	1.301765551957845e-39	2.971144835575153e-38	0	0	0	0	83.82230974242839	2.319143948314932e-39	0	0	0
11.46153846153858	-5.094265943710525	-13.29965241392391	101.7129431036816	0	0.93	0	-4.275637187527631	-22.5227007824615	-7.29406843645936	0.03435483804768531	0.0005996050379215293	-4.99999985103642	0	0	-22.14280637037683	-1.591511366097551	-39.98838537911811	0.01480244006703667	0.00025835131649892	-4.99999985104512	0	0	0	0	-8.87534903033212e-12	0	0	80.93964224380592	4.904701741123855e-39	8.305312269845017e-39	0	0	0	0	86.9713201209231	0	0	0	0
11.48076923076935	-5.334723310500106	-13.30628377352177	103.2395325716904	0	0.93	0	-2.529153698641549	-19.42451254287107	-31.4244833599704	0.01022124343489042	0.0001783943515866926	-4.999999851037169	0	0	-21.29062759647838	-15.0416371279372	-39.98939091878866	0.01641070094222101	0.0002864207640018923	-4.999999851045017	0	0	0	0	-8.87534903033212e-12	0	0	79.25439274855617	0	0	0	0	0	0	89.1543392633167	0	0	0	0
11.50000000000012	-5.41514975937169	-12.48873002716627	98.17811855723109	0	0.93	0	4.127414005328088	-47.72211075854615	-39.98331229961462	0.01803454750114187	0.0003147622330022415	-4.999999851042053	0	0	-11.92400566033432	-22.77169079082703	-39.9922608306285	0.09648194564409961	0.001683927620219739	-4.999999851045247	0	0	0	0	-8.87534903033212e-12	0	0	84.89769117589557	1.51332571742672e-39	0	0	0	0	0	84.5416227572246	0	0	0	0
11.51923076923089	-2.305685923333532	-12.53470733729901	98.65319464183908	0	0.93	0	9.408527422735917	-49.96829536528513	-39.90389609967283	0.01704334010628119	0.000297462400391807	-4.999999851044135	0	0	45.50208622818023	-49.9752620789081	-39.98564449168432	59.52969987390725	1.038989265523735	-4.999999851046027	0	0	0	0	-8.87534903033212e-12	0	0	85.0600092336674	1.074056271008893e-39	1.068694286247774e-38	0	0	0	0	87.66691336511839	4.799551692557162e-39	0	0	0
11.53846153846166	-3.581821249263969	-11.01969072712765	94.63227534138086	0	0.93	0	22.0675437641398	-41.44092863061437	-34.46928598816571	0.01268819687136133	0.0002214508115464986	-4.999999851044382	0	0	53.01239758111777	-49.96219875962274	-39.97588731299084	76.65846476783292	1.337942609722755	-4.999999851046146	0	0	0	0	-8.87534903033212e-12	0	0	88.1699430393774	1.147674396359885e-38	4.790853763055268e-40	0	0	0	0	88.28356953484574	1.383105540648697e-38	0	0	0
11.55769230769243	-1.193971117647433	-10.38834868310788	94.53771874120807	0	0.93	0	22.49414167992727	-27.85473765528936	-19.78414120062363	0.01766067320061596	0.0003082368954694736	-4.999999851044679	0	0	40.89277603366288	-41.75239626425326	-39.98636544723439	74.20713717857001	1.295158872245142	-4.999999851046255	0	0	0	0	-8.87534903033212e-12	0	0	89.38726338249498	0	1.009878636162505e-43	0	0	0	0	89.89159278946168	7.508057351184157e-39	2.104716260685094e-38	0	0
11.5769230769232	-4.528918181130984	-10.00551165104779	92.46916491553502	0	0.93	0	19.57862915902012	-32.37746467128189	-12.68603583033029	0.1793118788571092	0.003129582673993763	-4.999999851045327	0	0	-20.71651697115797	4.222936689013992	-39.98328055959186	7.539677878295509	0.1315922035160369	-4.999999851046494	0	0	0	0	-8.87534903033212e-12	0	0	89.93626513137563	1.558643703213561e-40	0	0	0	0	0	89.94685615616652	0	0	0	0
11.59615384615397	-4.190917988825081	-10.93651601174913	89.84530567740188	0	0.93	0	17.34303566961813	-33.82830337063213	-12.72543590681889	0.0361081783821507	0.0006302065996659691	-4.999999851045379	0	0	-24.43606742177506	16.94490946865989	-39.96979697117541	0.05333313608043339	0.000930838825017746	-4.999999851046511	0	0	0	0	-8.87534903033212e-12	0	0	89.91557027067444	1.401297959352417e-38	0	0	0	0	0	89.91925863633163	0	0	0	0
11.61538461538474	-4.321069365189099	-10.90840518099876	89.18152393566	0	0.93	0	20.4612642368958	-25.8601142810686	-24.02311275549409	0.01403833755649709	0.0002450152118672497	-4.999999851045432	0	0	-26.90137556083321	11.91599594658516	-39.97352450158908	0.03507819713074954	0.0006122300355952073	-4.999999851046531	0	0	0	0	-8.87534903033212e-12	0	0	89.83657638995018	0	0	0	0	0	0	89.96109075947984	0	0	0	0
11.63461538461551	-4.690086991542501	-10.33741163261954	89.31526482189051	0	0.93	0	23.96950521946389	-24.54848191189759	-26.03389367951165	0.01076242049322907	0.0001878396730909593	-4.999999851045484	0	0	-28.44271420195244	0.572600356210861	-39.98077337957096	0.02781030963296869	0.0004853814690943994	-4.999999851046548	0	0	0	0	-8.87534903033212e-12	0	0	89.35136972196625	5.170597238749549e-39	3.333704994975287e-39	0	0	0	0	89.96955845186534	1.097114312796687e-38	0	0	0
11.65384615384628	-6.086607658166626	-10.68162577246417	90.28027117601253	0	0.93	0	15.84017483573446	-31.8562733917358	-20.286812862988	0.01258796404340481	0.0002197014186800723	-4.999999851045557	0	0	-29.8882850818435	-5.725710228263003	-39.98838457948322	0.02587598640334743	0.000451621159939698	-4.999999851046567	0	0	0	0	-8.87534903033212e-12	0	0	86.66863915227201	0	4.25779887097583e-42	0	0	0	0	89.98118085527257	0	8.269133175680058e-39	0	0
11.67307692307705	-7.471648292615019	-10.5175078125819	91.03992032150278	0	0.93	0	6.41935562974593	-34.47089598539891	-25.07165790973806	0.01707101119427266	0.0002979453519848672	-4.999999851045899	-3.474030756696293e-16	3.470058954477116e-16	-29.8921877731167	-6.854919996058783	-39.99163760579255	0.02931124887646901	0.0005115778007658728	-4.999999851046414	2.278106399486571e-15	3.994927767745107e-15	4.927729929481428e-25	-1.339063810894871e-19	-8.875349030332491e-12	-2.066479913144697e-19	-3.926465328298489e-21	84.91139257178698	1.537211509036634e-14	0	-4.687851925933191e-21	5.613672651631603e-20	6.922867066195568e-15	3.764440834737733e-15	89.9863032180083	0	3.422159373120188e-15	5.99187778971594e-20	-1.738570166121874e-20
11.69230769230782	-5.391625906582043	-9.744655989873824	89.94209817519273	0	0.93	0	4.331274903061604	-33.60243472652535	-21.60199329209413	0.02040286329336116	0.000356097141303446	-4.999999851045392	0	0	-12.36744543298772	-19.37888508867572	-39.98937013489507	1.459328748751302	0.0254700915347193	-4.999999851046622	0	0	0	0	-8.87534903033212e-12	0	0	86.02531111457884	0	0	0	0	0	0	89.98587968513876	0	0	0	0
11.71153846153859	-4.681802023388872	-10.03904298088473	91.29562317823321	0	0.93	0	6.830853565489525	-34.2389095884312	-21.85248878182947	0.01739332359575907	0.0003035707646108151	-4.999999851045412	0	0	-6.970618780282154	-25.99590925651382	-39.99044897927442	0.2517572811802265	0.004393993472464108	-4.99999985104687	0	0	0	0	-8.87534903033212e-12	0	0	85.06916434259017	0	0	0	0	0	0	89.98668719590727	0	0	0	0
11.73076923076936	-2.741381531812042	-11.26283043542366	90.24138663153478	0	0.93	0	14.45321409957294	-30.77083322063272	-18.87138527891938	0.01575816939130847	0.0002750319399653235	-4.999999851045537	0	0	5.170520442857683	-30.64819001278417	-39.98602440321136	7.550000842012163	0.1317723732214565	-4.99999985104689	0	0	0	0	-8.87534903033212e-12	0	0	87.13140435554858	0	0	0	0	0	0	89.98007740390995	1.537839416155767e-38	0	0	0
11.75000000000014	-1.850250299032326	-12.09895858244514	90.82391588619458	0	0.93	0	18.01232848602775	-31.34893009526155	-20.56835256507381	0.01631757344334797	0.0002847953825224105	-4.999999851045908	-1.193022855275132e-15	-2.709426103538869e-16	14.72758850628563	-34.87633863666804	-39.98583677927639	16.9926568719269	0.2965778110767648	-4.999999851046848	-4.205883690852504e-15	3.3466270832223e-15	-1.632253859140924e-26	2.111177512390458e-22	-8.875349030332134e-12	3.623223003050526e-24	-1.507209803835114e-23	86.87459037699455	0	1.207200785556681e-13	1.638731287599368e-22	2.107373615005048e-22	-1.87091626813127e-15	-7.250766860087906e-16	89.97912681408997	8.432792539930658e-14	0	-1.767785376556262e-22	-2.307772475170607e-22
